# xmcd
#
# Track frame offsets: 
#        150
#        13156
#        24970
#        36688
#        46901
#        60516
#        74239
#        85258
#        98508
#        111381
#        122111
#        135156
#        148488
#        161216
#        174483
#        191118
#        203612
#        217248
#        231012
#        243797
#        255587
#        269803
#        283372
#        297585
#
# Disc length: 4154 seconds
#
# Revision: 2
# Processed by: cddbd v1.5.2PL0 Copyright (c) Steve Scherf et al.
# Submitted via: ExactAudioCopyFreeDBPlugin 1.0
#
DISCID=81103818
DTITLE=Charles Brown - Charles Brown:  The Classic Earliest Recordings
DTITLE=, 1944-1950 [JSP Records]
DYEAR=2003
DGENRE=Rhythm and Blues
TTITLE0=Wonder When My Baby's Comin' Home
TTITLE1=Dedicated to You
TTITLE2=What a Life
TTITLE3=How High the Moon
TTITLE4=Oh! Ooh! Sugar
TTITLE5=Get Yourself Another Fool
TTITLE6=Baby Do You Know the Game
TTITLE7=In the Evening When the Sun Goes Down
TTITLE8=It's Nothing
TTITLE9=Trouble Blues
TTITLE10=I Don't Care Who Knows
TTITLE11=When You're Alone
TTITLE12=Please Be Kind
TTITLE13=A Long Time
TTITLE14=So Mistreated
TTITLE15=Tormented
TTITLE16=Alley Batting
TTITLE17=I Stumbled Over You
TTITLE18=Take Me
TTITLE19=Let's Have a Ball
TTITLE20=Did You Ever Love a Woman
TTITLE21=My Baby's Gone
TTITLE22=Again
TTITLE23=Gee
EXTD=
EXTT0=
EXTT1=
EXTT2=
EXTT3=
EXTT4=
EXTT5=
EXTT6=
EXTT7=
EXTT8=
EXTT9=
EXTT10=
EXTT11=
EXTT12=
EXTT13=
EXTT14=
EXTT15=
EXTT16=
EXTT17=
EXTT18=
EXTT19=
EXTT20=
EXTT21=
EXTT22=
EXTT23=
PLAYORDER=
